<svg width="22" height="25" viewBox="0 0 22 25" fill="none" xmlns="http://www.w3.org/2000/svg">
<g filter="url(#filter0_d_62863_1118)">
<path fill-rule="evenodd" clip-rule="evenodd" d="M7.83555 13L6.94894 11.6453C6.34355 10.7203 5.05404 10.3829 4.06767 10.89L4.2975 10.7718C4.05272 10.8977 3.93534 11.2114 4.03613 11.4721L5.2634 14.6474C5.45796 15.1508 5.95486 15.8627 6.36661 16.2203C6.36661 16.2203 8.83555 18.2639 8.83555 19.03V20H12.8355L13.8355 18L14.8355 20H15.8355V19.03C15.8355 18.2639 17.3444 15.8507 17.3444 15.8507C17.6221 15.3816 17.8536 14.5552 17.8536 14.0066V9.9718C17.8355 9.0785 17.0762 8.35454 16.1393 8.35454C15.6705 8.35454 15.2909 8.71652 15.2909 9.16341V9.48657C15.2909 8.59327 14.5315 7.86931 13.5946 7.86931C13.1258 7.86931 12.7462 8.23129 12.7462 8.67819V9.00135C12.7462 8.10804 11.9868 7.38408 11.0499 7.38408C10.5812 7.38408 10.2015 7.74606 10.2015 8.19296V8.51612C10.2015 8.37256 10.1862 8.25843 10.1565 8.16799L9.89773 4.00121C9.86274 3.43776 9.38783 3 8.83555 3C8.27941 3 7.83555 3.44763 7.83555 3.99981V8V13ZM14.8536 12H15.8536V16H14.8536V12ZM12.8536 12H13.8536V16H12.8536V12ZM10.8536 12H11.8536V16H10.8536V12Z" fill="white"/>
</g>
<g filter="url(#filter1_d_62863_1118)">
<path fill-rule="evenodd" clip-rule="evenodd" d="M6.36645 16.2203C5.9547 15.8627 5.4578 15.1508 5.26324 14.6474L4.03597 11.4721C3.96869 11.2981 3.99862 11.1004 4.09878 10.9508C4.13295 10.8997 4.17529 10.8543 4.22474 10.8172C4.25123 10.8063 4.27789 10.7959 4.3047 10.7861C5.19164 10.4615 6.24667 10.7507 6.83539 11.4887C6.8754 11.5388 6.91327 11.5911 6.94878 11.6453L7.83539 13V3.99981C7.83539 3.44763 8.27925 3 8.83539 3C9.38767 3 9.86257 3.43776 9.89757 4.00121L10.1563 8.16799C10.159 8.17612 10.1616 8.18444 10.164 8.19296C10.1886 8.27919 10.2013 8.38546 10.2013 8.51612V8.19296C10.2013 8.18366 10.2015 8.17439 10.2018 8.16517C10.202 8.16107 10.2021 8.15699 10.2024 8.15291C10.2242 7.72464 10.5951 7.38408 11.0497 7.38408C11.0698 7.38408 11.0898 7.38442 11.1096 7.38507C11.4579 7.3966 11.7795 7.50817 12.0437 7.6906C12.3819 7.92413 12.6262 8.27375 12.7122 8.67819C12.7344 8.7826 12.746 8.89068 12.746 9.00135V8.67819C12.746 8.26611 13.0688 7.92623 13.4866 7.87577C13.5219 7.87151 13.5579 7.86931 13.5944 7.86931C13.9657 7.86931 14.3091 7.98299 14.5884 8.17583C14.9266 8.40935 15.1708 8.75898 15.2568 9.16341C15.279 9.26783 15.2907 9.3759 15.2907 9.48657V9.16341C15.2907 8.75134 15.6135 8.41146 16.0313 8.361C16.0666 8.35674 16.1026 8.35454 16.1391 8.35454C17.0761 8.35454 17.8354 9.0785 17.8535 9.9718V14.0066C17.8535 14.5552 17.622 15.3816 17.3442 15.8507C17.3442 15.8507 17.1249 16.2015 16.8535 16.678C16.7952 16.7803 16.7346 16.8884 16.6732 17C16.2703 17.7325 15.8354 18.6187 15.8354 19.03V20H14.8354L13.8354 18L12.8354 20H8.83539V19.03C8.83539 18.2639 6.36645 16.2203 6.36645 16.2203ZM5.72872 16.9906L5.71968 16.9831L5.71072 16.9753C5.17451 16.5096 4.5832 15.6618 4.33049 15.0079L3.10321 11.8327C2.85305 11.1854 3.06997 10.4347 3.62038 10.0202L3.6103 10.0006C3.6103 10.0006 3.6103 10.0006 3.6103 10.0006L3.84013 9.88245M3.84508 9.89209C4.82718 9.48716 5.95799 9.61231 6.83539 10.1667V3.99981C6.83539 2.89768 7.72464 2 8.83539 2C9.91233 2 10.8277 2.84504 10.8956 3.93923L11.0475 6.38409C11.0482 6.38408 11.049 6.38408 11.0497 6.38408C11.7184 6.38408 12.3461 6.62589 12.8273 7.03355C13.0644 6.92746 13.3255 6.86931 13.5944 6.86931C14.2631 6.86931 14.8907 7.11112 15.3719 7.51877C15.6091 7.41268 15.8702 7.35454 16.1391 7.35454C17.5877 7.35454 18.8235 8.48181 18.8533 9.95156L18.8535 9.96168V14.0066C18.8535 14.4009 18.7739 14.839 18.6666 15.2258C18.5592 15.6131 18.4025 16.0261 18.2047 16.3602L18.1985 16.3706L18.1922 16.3807L18.189 16.3858L18.1777 16.4041L18.1326 16.4775C18.0932 16.5418 18.0366 16.6354 17.9683 16.7503C17.8313 16.9809 17.65 17.2941 17.4699 17.6279C17.288 17.9649 17.1159 18.3073 16.992 18.6C16.8906 18.8394 16.8545 18.9713 16.8419 19.0172C16.8364 19.0372 16.8354 19.0409 16.8354 19.03V21H14.2174L13.8354 20.2361L13.4534 21H7.83539V19.1383C7.8035 19.0803 7.74704 18.9939 7.65854 18.8795C7.4675 18.6324 7.19559 18.3416 6.89995 18.051C6.60872 17.7648 6.31472 17.4985 6.09184 17.3025C5.98091 17.205 5.88878 17.1259 5.82495 17.0716C5.79306 17.0445 5.7683 17.0237 5.75186 17.0099L5.73363 16.9947L5.7295 16.9912L5.72872 16.9906M13.8535 16V12H12.8535V16H13.8535ZM10.8535 12V16H11.8535V12H10.8535ZM14.8535 12V16H15.8535V12H14.8535ZM4.29734 10.7718L4.06751 10.89C4.11914 10.8634 4.1716 10.8392 4.22474 10.8172C4.24748 10.8002 4.27171 10.785 4.29734 10.7718Z" fill="black" fill-opacity="0.8"/>
</g>
<defs>
<filter id="filter0_d_62863_1118" x="1" y="1" width="19.8535" height="23" filterUnits="userSpaceOnUse" color-interpolation-filters="sRGB">
<feFlood flood-opacity="0" result="BackgroundImageFix"/>
<feColorMatrix in="SourceAlpha" type="matrix" values="0 0 0 0 0 0 0 0 0 0 0 0 0 0 0 0 0 0 127 0" result="hardAlpha"/>
<feOffset dy="1"/>
<feGaussianBlur stdDeviation="1.5"/>
<feColorMatrix type="matrix" values="0 0 0 0 0 0 0 0 0 0 0 0 0 0 0 0 0 0 0.2 0"/>
<feBlend mode="normal" in2="BackgroundImageFix" result="effect1_dropShadow_62863_1118"/>
<feBlend mode="normal" in="SourceGraphic" in2="effect1_dropShadow_62863_1118" result="shape"/>
</filter>
<filter id="filter1_d_62863_1118" x="0" y="0" width="21.8535" height="25" filterUnits="userSpaceOnUse" color-interpolation-filters="sRGB">
<feFlood flood-opacity="0" result="BackgroundImageFix"/>
<feColorMatrix in="SourceAlpha" type="matrix" values="0 0 0 0 0 0 0 0 0 0 0 0 0 0 0 0 0 0 127 0" result="hardAlpha"/>
<feOffset dy="1"/>
<feGaussianBlur stdDeviation="1.5"/>
<feColorMatrix type="matrix" values="0 0 0 0 0 0 0 0 0 0 0 0 0 0 0 0 0 0 0.2 0"/>
<feBlend mode="normal" in2="BackgroundImageFix" result="effect1_dropShadow_62863_1118"/>
<feBlend mode="normal" in="SourceGraphic" in2="effect1_dropShadow_62863_1118" result="shape"/>
</filter>
</defs>
</svg>
